<?xml version="1.0" encoding="UTF-8" standalone="no"?>
<svg
   id="svg4306"
   width="44"
   height="28"
   version="1.1"
   style="enable-background:new"
   sodipodi:docname="maximize.svg"
   inkscape:version="1.2.1 (9c6d41e410, 2022-07-14, custom)"
   xmlns:inkscape="http://www.inkscape.org/namespaces/inkscape"
   xmlns:sodipodi="http://sodipodi.sourceforge.net/DTD/sodipodi-0.dtd"
   xmlns:xlink="http://www.w3.org/1999/xlink"
   xmlns="http://www.w3.org/2000/svg"
   xmlns:svg="http://www.w3.org/2000/svg"
   xmlns:rdf="http://www.w3.org/1999/02/22-rdf-syntax-ns#"
   xmlns:cc="http://creativecommons.org/ns#"
   xmlns:dc="http://purl.org/dc/elements/1.1/">
  <metadata
     id="metadata24">
    <rdf:RDF>
      <cc:Work
         rdf:about="">
        <dc:format>image/svg+xml</dc:format>
        <dc:type
           rdf:resource="http://purl.org/dc/dcmitype/StillImage" />
      </cc:Work>
    </rdf:RDF>
  </metadata>
  <defs
     id="defs22">
    <filter
       color-interpolation-filters="sRGB"
       height="1.048"
       width="1.048"
       y="-0.024"
       x="-0.024"
       id="filter11290">
      <feGaussianBlur
         id="feGaussianBlur879"
         stdDeviation="0.15875313" />
    </filter>
    <linearGradient
       gradientUnits="userSpaceOnUse"
       gradientTransform="translate(-0.0078552,-5.0139e-5)"
       y2="0.64687002"
       y1="16.296"
       x2="16.388"
       x1="0.73910999"
       id="linearGradient1005">
      <stop
         id="stop882"
         offset="0"
         stop-color="#00dc96" />
      <stop
         id="stop884"
         offset="1"
         stop-color="#14d29b" />
    </linearGradient>
  </defs>
  <sodipodi:namedview
     pagecolor="#c8c8c8"
     bordercolor="#666666"
     borderopacity="1"
     objecttolerance="10"
     gridtolerance="10"
     guidetolerance="10"
     inkscape:pageopacity="0"
     inkscape:pageshadow="2"
     inkscape:window-width="1920"
     inkscape:window-height="989"
     id="namedview20"
     showgrid="true"
     inkscape:zoom="5.6568543"
     inkscape:cx="35.178562"
     inkscape:cy="11.75565"
     inkscape:window-x="0"
     inkscape:window-y="0"
     inkscape:window-maximized="1"
     inkscape:current-layer="svg4306"
     inkscape:snap-bbox="true"
     inkscape:bbox-nodes="true"
     inkscape:snap-bbox-edge-midpoints="true"
     inkscape:document-rotation="0"
     inkscape:pagecheckerboard="0"
     inkscape:snap-nodes="false"
     inkscape:showpageshadow="0"
     inkscape:deskcolor="#c8c8c8">
    <inkscape:grid
       type="xygrid"
       id="grid949"
       originx="0"
       originy="0" />
  </sodipodi:namedview>
  <use
     x="0"
     y="0"
     xlink:href="#g1000"
     id="use1002"
     transform="translate(28.476029)"
     width="100%"
     height="100%" />
  <g
     id="active-center"
     style="enable-background:new">
    <rect
       y="6.0135119e-07"
       x="2.9407613e-07"
       height="28"
       width="44"
       id="rect715"
       style="opacity:0.003;fill:#000000;fill-opacity:1;stroke-width:1.32665" />
    <path
       id="rect489"
       style="fill:#ffffff;fill-opacity:1;fill-rule:evenodd;stroke:none;stroke-width:22;stroke-linecap:round;stroke-linejoin:round;paint-order:stroke fill markers"
       d="M 17.5,8 C 17.223,8 17,8.2230003 17,8.5 V 9 H 16.5 C 16.223,9 16,9.2230003 16,9.5 16,9.7769997 16.223,10 16.5,10 H 17 v 0.5 c 0,0.277 0.223,0.5 0.5,0.5 0.277,0 0.5,-0.223 0.5,-0.5 V 10 h 0.5 C 18.777,10 19,9.7769997 19,9.5 19,9.2230003 18.777,9 18.5,9 H 18 V 8.5 C 18,8.2230003 17.777,8 17.5,8 Z m 4,0 C 21.223,8 21,8.2230003 21,8.5 V 9 H 20.5 C 20.223,9 20,9.2230003 20,9.5 20,9.7769997 20.223,10 20.5,10 H 21 v 0.5 c 0,0.277 0.223,0.5 0.5,0.5 0.277,0 0.5,-0.223 0.5,-0.5 V 10 h 0.5 C 22.777,10 23,9.7769997 23,9.5 23,9.2230003 22.777,9 22.5,9 H 22 V 8.5 C 22,8.2230003 21.777,8 21.5,8 Z m 4,0 C 25.223,8 25,8.2230003 25,8.5 V 9 H 24.5 C 24.223,9 24,9.2230003 24,9.5 24,9.7769997 24.223,10 24.5,10 H 25 v 0.5 c 0,0.277 0.223,0.5 0.5,0.5 0.277,0 0.5,-0.223 0.5,-0.5 V 10 h 0.5 C 26.777,10 27,9.7769997 27,9.5 27,9.2230003 26.777,9 26.5,9 H 26 V 8.5 C 26,8.2230003 25.777,8 25.5,8 Z m -8,4 C 17.223,12 17,12.223 17,12.5 V 13 h -0.5 c -0.277,0 -0.5,0.223 -0.5,0.5 0,0.277 0.223,0.5 0.5,0.5 H 17 v 0.5 c 0,0.277 0.223,0.5 0.5,0.5 0.277,0 0.5,-0.223 0.5,-0.5 V 14 h 0.5 C 18.777,14 19,13.777 19,13.5 19,13.223 18.777,13 18.5,13 H 18 V 12.5 C 18,12.223 17.777,12 17.5,12 Z m 4,0 C 21.223,12 21,12.223 21,12.5 V 13 h -0.5 c -0.277,0 -0.5,0.223 -0.5,0.5 0,0.277 0.223,0.5 0.5,0.5 H 21 v 0.5 c 0,0.277 0.223,0.5 0.5,0.5 0.277,0 0.5,-0.223 0.5,-0.5 V 14 h 0.5 C 22.777,14 23,13.777 23,13.5 23,13.223 22.777,13 22.5,13 H 22 V 12.5 C 22,12.223 21.777,12 21.5,12 Z m 4,0 C 25.223,12 25,12.223 25,12.5 V 13 h -0.5 c -0.277,0 -0.5,0.223 -0.5,0.5 0,0.277 0.223,0.5 0.5,0.5 H 25 v 0.5 c 0,0.277 0.223,0.5 0.5,0.5 0.277,0 0.5,-0.223 0.5,-0.5 V 14 h 0.5 C 26.777,14 27,13.777 27,13.5 27,13.223 26.777,13 26.5,13 H 26 V 12.5 C 26,12.223 25.777,12 25.5,12 Z m -8,4 C 17.223,16 17,16.223 17,16.5 V 17 h -0.5 c -0.277,0 -0.5,0.223 -0.5,0.5 0,0.277 0.223,0.5 0.5,0.5 H 17 v 0.5 c 0,0.277 0.223,0.5 0.5,0.5 0.277,0 0.5,-0.223 0.5,-0.5 V 18 h 0.5 C 18.777,18 19,17.777 19,17.5 19,17.223 18.777,17 18.5,17 H 18 V 16.5 C 18,16.223 17.777,16 17.5,16 Z m 4,0 C 21.223,16 21,16.223 21,16.5 V 17 h -0.5 c -0.277,0 -0.5,0.223 -0.5,0.5 0,0.277 0.223,0.5 0.5,0.5 H 21 v 0.5 c 0,0.277 0.223,0.5 0.5,0.5 0.277,0 0.5,-0.223 0.5,-0.5 V 18 h 0.5 C 22.777,18 23,17.777 23,17.5 23,17.223 22.777,17 22.5,17 H 22 V 16.5 C 22,16.223 21.777,16 21.5,16 Z"
       sodipodi:nodetypes="sscssscssscssscsssscssscssscssscsssscssscssscssscsssscssscssscssscsssscssscssscssscsssscssscssscssscsssscssscssscssscsssscssscssscssscss" />
  </g>
  <g
     id="hover-center">
    <g
       id="use1628"
       transform="matrix(4.376295,0,0,3.3070868,-2.3157909,93.625005)">
      <rect
         style="color:#232629;opacity:0.1;fill:#ffffff;fill-opacity:1"
         id="rect13204"
         width="10.054167"
         height="8.4666662"
         x="0.52916682"
         y="-19.84375"
         class="ColorScheme-Text" />
    </g>
    <path
       id="path1495"
       style="fill:#ffffff;fill-opacity:1;fill-rule:evenodd;stroke:none;stroke-width:22;stroke-linecap:round;stroke-linejoin:round;paint-order:stroke fill markers"
       d="m 17.5,35.999999 c -0.277,0 -0.5,0.223 -0.5,0.5 v 0.5 h -0.5 c -0.277,0 -0.5,0.223 -0.5,0.5 0,0.277 0.223,0.5 0.5,0.5 H 17 v 0.5 c 0,0.277 0.223,0.5 0.5,0.5 0.277,0 0.5,-0.223 0.5,-0.5 v -0.5 h 0.5 c 0.277,0 0.5,-0.223 0.5,-0.5 0,-0.277 -0.223,-0.5 -0.5,-0.5 H 18 v -0.5 c 0,-0.277 -0.223,-0.5 -0.5,-0.5 z m 4,0 c -0.277,0 -0.5,0.223 -0.5,0.5 v 0.5 h -0.5 c -0.277,0 -0.5,0.223 -0.5,0.5 0,0.277 0.223,0.5 0.5,0.5 H 21 v 0.5 c 0,0.277 0.223,0.5 0.5,0.5 0.277,0 0.5,-0.223 0.5,-0.5 v -0.5 h 0.5 c 0.277,0 0.5,-0.223 0.5,-0.5 0,-0.277 -0.223,-0.5 -0.5,-0.5 H 22 v -0.5 c 0,-0.277 -0.223,-0.5 -0.5,-0.5 z m 4,0 c -0.277,0 -0.5,0.223 -0.5,0.5 v 0.5 h -0.5 c -0.277,0 -0.5,0.223 -0.5,0.5 0,0.277 0.223,0.5 0.5,0.5 H 25 v 0.5 c 0,0.277 0.223,0.5 0.5,0.5 0.277,0 0.5,-0.223 0.5,-0.5 v -0.5 h 0.5 c 0.277,0 0.5,-0.223 0.5,-0.5 0,-0.277 -0.223,-0.5 -0.5,-0.5 H 26 v -0.5 c 0,-0.277 -0.223,-0.5 -0.5,-0.5 z m -8,4 c -0.277,0 -0.5,0.223 -0.5,0.5 v 0.5 h -0.5 c -0.277,0 -0.5,0.223 -0.5,0.5 0,0.277 0.223,0.5 0.5,0.5 H 17 v 0.5 c 0,0.277 0.223,0.5 0.5,0.5 0.277,0 0.5,-0.223 0.5,-0.5 v -0.5 h 0.5 c 0.277,0 0.5,-0.223 0.5,-0.5 0,-0.277 -0.223,-0.5 -0.5,-0.5 H 18 v -0.5 c 0,-0.277 -0.223,-0.5 -0.5,-0.5 z m 4,0 c -0.277,0 -0.5,0.223 -0.5,0.5 v 0.5 h -0.5 c -0.277,0 -0.5,0.223 -0.5,0.5 0,0.277 0.223,0.5 0.5,0.5 H 21 v 0.5 c 0,0.277 0.223,0.5 0.5,0.5 0.277,0 0.5,-0.223 0.5,-0.5 v -0.5 h 0.5 c 0.277,0 0.5,-0.223 0.5,-0.5 0,-0.277 -0.223,-0.5 -0.5,-0.5 H 22 v -0.5 c 0,-0.277 -0.223,-0.5 -0.5,-0.5 z m 4,0 c -0.277,0 -0.5,0.223 -0.5,0.5 v 0.5 h -0.5 c -0.277,0 -0.5,0.223 -0.5,0.5 0,0.277 0.223,0.5 0.5,0.5 H 25 v 0.5 c 0,0.277 0.223,0.5 0.5,0.5 0.277,0 0.5,-0.223 0.5,-0.5 v -0.5 h 0.5 c 0.277,0 0.5,-0.223 0.5,-0.5 0,-0.277 -0.223,-0.5 -0.5,-0.5 H 26 v -0.5 c 0,-0.277 -0.223,-0.5 -0.5,-0.5 z m -8,4 c -0.277,0 -0.5,0.223 -0.5,0.5 v 0.5 h -0.5 c -0.277,0 -0.5,0.223 -0.5,0.5 0,0.277 0.223,0.5 0.5,0.5 H 17 v 0.5 c 0,0.277 0.223,0.5 0.5,0.5 0.277,0 0.5,-0.223 0.5,-0.5 v -0.5 h 0.5 c 0.277,0 0.5,-0.223 0.5,-0.5 0,-0.277 -0.223,-0.5 -0.5,-0.5 H 18 v -0.5 c 0,-0.277 -0.223,-0.5 -0.5,-0.5 z m 4,0 c -0.277,0 -0.5,0.223 -0.5,0.5 v 0.5 h -0.5 c -0.277,0 -0.5,0.223 -0.5,0.5 0,0.277 0.223,0.5 0.5,0.5 H 21 v 0.5 c 0,0.277 0.223,0.5 0.5,0.5 0.277,0 0.5,-0.223 0.5,-0.5 v -0.5 h 0.5 c 0.277,0 0.5,-0.223 0.5,-0.5 0,-0.277 -0.223,-0.5 -0.5,-0.5 H 22 v -0.5 c 0,-0.277 -0.223,-0.5 -0.5,-0.5 z"
       sodipodi:nodetypes="sscssscssscssscsssscssscssscssscsssscssscssscssscsssscssscssscssscsssscssscssscssscsssscssscssscssscsssscssscssscssscsssscssscssscssscss" />
  </g>
  <g
     id="pressed-center"
     transform="translate(8.0168631e-7,27.999999)">
    <g
       id="g1553"
       transform="matrix(4.376295,0,0,3.3070868,-2.3157909,93.625005)">
      <rect
         style="color:#232629;opacity:0.25;fill:#ffffff;fill-opacity:1"
         id="rect1551"
         width="10.054167"
         height="8.4666662"
         x="0.52916682"
         y="-19.84375"
         class="ColorScheme-Text" />
    </g>
    <path
       id="path1555"
       style="fill:#ffffff;fill-opacity:1;fill-rule:evenodd;stroke:none;stroke-width:22;stroke-linecap:round;stroke-linejoin:round;paint-order:stroke fill markers"
       d="m 17.5,35.999999 c -0.277,0 -0.5,0.223 -0.5,0.5 v 0.5 h -0.5 c -0.277,0 -0.5,0.223 -0.5,0.5 0,0.277 0.223,0.5 0.5,0.5 H 17 v 0.5 c 0,0.277 0.223,0.5 0.5,0.5 0.277,0 0.5,-0.223 0.5,-0.5 v -0.5 h 0.5 c 0.277,0 0.5,-0.223 0.5,-0.5 0,-0.277 -0.223,-0.5 -0.5,-0.5 H 18 v -0.5 c 0,-0.277 -0.223,-0.5 -0.5,-0.5 z m 4,0 c -0.277,0 -0.5,0.223 -0.5,0.5 v 0.5 h -0.5 c -0.277,0 -0.5,0.223 -0.5,0.5 0,0.277 0.223,0.5 0.5,0.5 H 21 v 0.5 c 0,0.277 0.223,0.5 0.5,0.5 0.277,0 0.5,-0.223 0.5,-0.5 v -0.5 h 0.5 c 0.277,0 0.5,-0.223 0.5,-0.5 0,-0.277 -0.223,-0.5 -0.5,-0.5 H 22 v -0.5 c 0,-0.277 -0.223,-0.5 -0.5,-0.5 z m 4,0 c -0.277,0 -0.5,0.223 -0.5,0.5 v 0.5 h -0.5 c -0.277,0 -0.5,0.223 -0.5,0.5 0,0.277 0.223,0.5 0.5,0.5 H 25 v 0.5 c 0,0.277 0.223,0.5 0.5,0.5 0.277,0 0.5,-0.223 0.5,-0.5 v -0.5 h 0.5 c 0.277,0 0.5,-0.223 0.5,-0.5 0,-0.277 -0.223,-0.5 -0.5,-0.5 H 26 v -0.5 c 0,-0.277 -0.223,-0.5 -0.5,-0.5 z m -8,4 c -0.277,0 -0.5,0.223 -0.5,0.5 v 0.5 h -0.5 c -0.277,0 -0.5,0.223 -0.5,0.5 0,0.277 0.223,0.5 0.5,0.5 H 17 v 0.5 c 0,0.277 0.223,0.5 0.5,0.5 0.277,0 0.5,-0.223 0.5,-0.5 v -0.5 h 0.5 c 0.277,0 0.5,-0.223 0.5,-0.5 0,-0.277 -0.223,-0.5 -0.5,-0.5 H 18 v -0.5 c 0,-0.277 -0.223,-0.5 -0.5,-0.5 z m 4,0 c -0.277,0 -0.5,0.223 -0.5,0.5 v 0.5 h -0.5 c -0.277,0 -0.5,0.223 -0.5,0.5 0,0.277 0.223,0.5 0.5,0.5 H 21 v 0.5 c 0,0.277 0.223,0.5 0.5,0.5 0.277,0 0.5,-0.223 0.5,-0.5 v -0.5 h 0.5 c 0.277,0 0.5,-0.223 0.5,-0.5 0,-0.277 -0.223,-0.5 -0.5,-0.5 H 22 v -0.5 c 0,-0.277 -0.223,-0.5 -0.5,-0.5 z m 4,0 c -0.277,0 -0.5,0.223 -0.5,0.5 v 0.5 h -0.5 c -0.277,0 -0.5,0.223 -0.5,0.5 0,0.277 0.223,0.5 0.5,0.5 H 25 v 0.5 c 0,0.277 0.223,0.5 0.5,0.5 0.277,0 0.5,-0.223 0.5,-0.5 v -0.5 h 0.5 c 0.277,0 0.5,-0.223 0.5,-0.5 0,-0.277 -0.223,-0.5 -0.5,-0.5 H 26 v -0.5 c 0,-0.277 -0.223,-0.5 -0.5,-0.5 z m -8,4 c -0.277,0 -0.5,0.223 -0.5,0.5 v 0.5 h -0.5 c -0.277,0 -0.5,0.223 -0.5,0.5 0,0.277 0.223,0.5 0.5,0.5 H 17 v 0.5 c 0,0.277 0.223,0.5 0.5,0.5 0.277,0 0.5,-0.223 0.5,-0.5 v -0.5 h 0.5 c 0.277,0 0.5,-0.223 0.5,-0.5 0,-0.277 -0.223,-0.5 -0.5,-0.5 H 18 v -0.5 c 0,-0.277 -0.223,-0.5 -0.5,-0.5 z m 4,0 c -0.277,0 -0.5,0.223 -0.5,0.5 v 0.5 h -0.5 c -0.277,0 -0.5,0.223 -0.5,0.5 0,0.277 0.223,0.5 0.5,0.5 H 21 v 0.5 c 0,0.277 0.223,0.5 0.5,0.5 0.277,0 0.5,-0.223 0.5,-0.5 v -0.5 h 0.5 c 0.277,0 0.5,-0.223 0.5,-0.5 0,-0.277 -0.223,-0.5 -0.5,-0.5 H 22 v -0.5 c 0,-0.277 -0.223,-0.5 -0.5,-0.5 z"
       sodipodi:nodetypes="sscssscssscssscsssscssscssscssscsssscssscssscssscsssscssscssscssscsssscssscssscssscsssscssscssscssscsssscssscssscssscsssscssscssscssscss" />
  </g>
  <g
     id="inactive-center"
     style="enable-background:new"
     transform="translate(44)">
    <rect
       y="6.0135119e-07"
       x="2.9407613e-07"
       height="28"
       width="44"
       id="rect3015"
       style="opacity:0.003;fill:#000000;fill-opacity:1;stroke-width:1.32665" />
    <path
       id="path3017"
       style="opacity:0.4;fill:#ffffff;fill-opacity:1;fill-rule:evenodd;stroke:none;stroke-width:22;stroke-linecap:round;stroke-linejoin:round;paint-order:stroke fill markers"
       d="M 17.5,8 C 17.223,8 17,8.2230003 17,8.5 V 9 H 16.5 C 16.223,9 16,9.2230003 16,9.5 16,9.7769997 16.223,10 16.5,10 H 17 v 0.5 c 0,0.277 0.223,0.5 0.5,0.5 0.277,0 0.5,-0.223 0.5,-0.5 V 10 h 0.5 C 18.777,10 19,9.7769997 19,9.5 19,9.2230003 18.777,9 18.5,9 H 18 V 8.5 C 18,8.2230003 17.777,8 17.5,8 Z m 4,0 C 21.223,8 21,8.2230003 21,8.5 V 9 H 20.5 C 20.223,9 20,9.2230003 20,9.5 20,9.7769997 20.223,10 20.5,10 H 21 v 0.5 c 0,0.277 0.223,0.5 0.5,0.5 0.277,0 0.5,-0.223 0.5,-0.5 V 10 h 0.5 C 22.777,10 23,9.7769997 23,9.5 23,9.2230003 22.777,9 22.5,9 H 22 V 8.5 C 22,8.2230003 21.777,8 21.5,8 Z m 4,0 C 25.223,8 25,8.2230003 25,8.5 V 9 H 24.5 C 24.223,9 24,9.2230003 24,9.5 24,9.7769997 24.223,10 24.5,10 H 25 v 0.5 c 0,0.277 0.223,0.5 0.5,0.5 0.277,0 0.5,-0.223 0.5,-0.5 V 10 h 0.5 C 26.777,10 27,9.7769997 27,9.5 27,9.2230003 26.777,9 26.5,9 H 26 V 8.5 C 26,8.2230003 25.777,8 25.5,8 Z m -8,4 C 17.223,12 17,12.223 17,12.5 V 13 h -0.5 c -0.277,0 -0.5,0.223 -0.5,0.5 0,0.277 0.223,0.5 0.5,0.5 H 17 v 0.5 c 0,0.277 0.223,0.5 0.5,0.5 0.277,0 0.5,-0.223 0.5,-0.5 V 14 h 0.5 C 18.777,14 19,13.777 19,13.5 19,13.223 18.777,13 18.5,13 H 18 V 12.5 C 18,12.223 17.777,12 17.5,12 Z m 4,0 C 21.223,12 21,12.223 21,12.5 V 13 h -0.5 c -0.277,0 -0.5,0.223 -0.5,0.5 0,0.277 0.223,0.5 0.5,0.5 H 21 v 0.5 c 0,0.277 0.223,0.5 0.5,0.5 0.277,0 0.5,-0.223 0.5,-0.5 V 14 h 0.5 C 22.777,14 23,13.777 23,13.5 23,13.223 22.777,13 22.5,13 H 22 V 12.5 C 22,12.223 21.777,12 21.5,12 Z m 4,0 C 25.223,12 25,12.223 25,12.5 V 13 h -0.5 c -0.277,0 -0.5,0.223 -0.5,0.5 0,0.277 0.223,0.5 0.5,0.5 H 25 v 0.5 c 0,0.277 0.223,0.5 0.5,0.5 0.277,0 0.5,-0.223 0.5,-0.5 V 14 h 0.5 C 26.777,14 27,13.777 27,13.5 27,13.223 26.777,13 26.5,13 H 26 V 12.5 C 26,12.223 25.777,12 25.5,12 Z m -8,4 C 17.223,16 17,16.223 17,16.5 V 17 h -0.5 c -0.277,0 -0.5,0.223 -0.5,0.5 0,0.277 0.223,0.5 0.5,0.5 H 17 v 0.5 c 0,0.277 0.223,0.5 0.5,0.5 0.277,0 0.5,-0.223 0.5,-0.5 V 18 h 0.5 C 18.777,18 19,17.777 19,17.5 19,17.223 18.777,17 18.5,17 H 18 V 16.5 C 18,16.223 17.777,16 17.5,16 Z m 4,0 C 21.223,16 21,16.223 21,16.5 V 17 h -0.5 c -0.277,0 -0.5,0.223 -0.5,0.5 0,0.277 0.223,0.5 0.5,0.5 H 21 v 0.5 c 0,0.277 0.223,0.5 0.5,0.5 0.277,0 0.5,-0.223 0.5,-0.5 V 18 h 0.5 C 22.777,18 23,17.777 23,17.5 23,17.223 22.777,17 22.5,17 H 22 V 16.5 C 22,16.223 21.777,16 21.5,16 Z"
       sodipodi:nodetypes="sscssscssscssscsssscssscssscssscsssscssscssscssscsssscssscssscssscsssscssscssscssscsssscssscssscssscsssscssscssscssscsssscssscssscssscss" />
  </g>
  <g
     id="deactivated-center"
     style="enable-background:new"
     transform="translate(88)">
    <rect
       y="6.0135119e-07"
       x="2.9407613e-07"
       height="28"
       width="44"
       id="rect5205"
       style="opacity:0.003;fill:#000000;fill-opacity:1;stroke-width:1.32665" />
    <path
       id="path5207"
       style="opacity:0.4;fill:#ffffff;fill-opacity:1;fill-rule:evenodd;stroke:none;stroke-width:22;stroke-linecap:round;stroke-linejoin:round;paint-order:stroke fill markers"
       d="M 17.5,8 C 17.223,8 17,8.2230003 17,8.5 V 9 H 16.5 C 16.223,9 16,9.2230003 16,9.5 16,9.7769997 16.223,10 16.5,10 H 17 v 0.5 c 0,0.277 0.223,0.5 0.5,0.5 0.277,0 0.5,-0.223 0.5,-0.5 V 10 h 0.5 C 18.777,10 19,9.7769997 19,9.5 19,9.2230003 18.777,9 18.5,9 H 18 V 8.5 C 18,8.2230003 17.777,8 17.5,8 Z m 4,0 C 21.223,8 21,8.2230003 21,8.5 V 9 H 20.5 C 20.223,9 20,9.2230003 20,9.5 20,9.7769997 20.223,10 20.5,10 H 21 v 0.5 c 0,0.277 0.223,0.5 0.5,0.5 0.277,0 0.5,-0.223 0.5,-0.5 V 10 h 0.5 C 22.777,10 23,9.7769997 23,9.5 23,9.2230003 22.777,9 22.5,9 H 22 V 8.5 C 22,8.2230003 21.777,8 21.5,8 Z m 4,0 C 25.223,8 25,8.2230003 25,8.5 V 9 H 24.5 C 24.223,9 24,9.2230003 24,9.5 24,9.7769997 24.223,10 24.5,10 H 25 v 0.5 c 0,0.277 0.223,0.5 0.5,0.5 0.277,0 0.5,-0.223 0.5,-0.5 V 10 h 0.5 C 26.777,10 27,9.7769997 27,9.5 27,9.2230003 26.777,9 26.5,9 H 26 V 8.5 C 26,8.2230003 25.777,8 25.5,8 Z m -8,4 C 17.223,12 17,12.223 17,12.5 V 13 h -0.5 c -0.277,0 -0.5,0.223 -0.5,0.5 0,0.277 0.223,0.5 0.5,0.5 H 17 v 0.5 c 0,0.277 0.223,0.5 0.5,0.5 0.277,0 0.5,-0.223 0.5,-0.5 V 14 h 0.5 C 18.777,14 19,13.777 19,13.5 19,13.223 18.777,13 18.5,13 H 18 V 12.5 C 18,12.223 17.777,12 17.5,12 Z m 4,0 C 21.223,12 21,12.223 21,12.5 V 13 h -0.5 c -0.277,0 -0.5,0.223 -0.5,0.5 0,0.277 0.223,0.5 0.5,0.5 H 21 v 0.5 c 0,0.277 0.223,0.5 0.5,0.5 0.277,0 0.5,-0.223 0.5,-0.5 V 14 h 0.5 C 22.777,14 23,13.777 23,13.5 23,13.223 22.777,13 22.5,13 H 22 V 12.5 C 22,12.223 21.777,12 21.5,12 Z m 4,0 C 25.223,12 25,12.223 25,12.5 V 13 h -0.5 c -0.277,0 -0.5,0.223 -0.5,0.5 0,0.277 0.223,0.5 0.5,0.5 H 25 v 0.5 c 0,0.277 0.223,0.5 0.5,0.5 0.277,0 0.5,-0.223 0.5,-0.5 V 14 h 0.5 C 26.777,14 27,13.777 27,13.5 27,13.223 26.777,13 26.5,13 H 26 V 12.5 C 26,12.223 25.777,12 25.5,12 Z m -8,4 C 17.223,16 17,16.223 17,16.5 V 17 h -0.5 c -0.277,0 -0.5,0.223 -0.5,0.5 0,0.277 0.223,0.5 0.5,0.5 H 17 v 0.5 c 0,0.277 0.223,0.5 0.5,0.5 0.277,0 0.5,-0.223 0.5,-0.5 V 18 h 0.5 C 18.777,18 19,17.777 19,17.5 19,17.223 18.777,17 18.5,17 H 18 V 16.5 C 18,16.223 17.777,16 17.5,16 Z m 4,0 C 21.223,16 21,16.223 21,16.5 V 17 h -0.5 c -0.277,0 -0.5,0.223 -0.5,0.5 0,0.277 0.223,0.5 0.5,0.5 H 21 v 0.5 c 0,0.277 0.223,0.5 0.5,0.5 0.277,0 0.5,-0.223 0.5,-0.5 V 18 h 0.5 C 22.777,18 23,17.777 23,17.5 23,17.223 22.777,17 22.5,17 H 22 V 16.5 C 22,16.223 21.777,16 21.5,16 Z"
       sodipodi:nodetypes="sscssscssscssscsssscssscssscssscsssscssscssscssscsssscssscssscssscsssscssscssscssscsssscssscssscssscsssscssscssscssscsssscssscssscssscss" />
  </g>
</svg>
