<?xml version="1.0" encoding="UTF-8" standalone="no"?>
<svg
   id="svg4306"
   width="44"
   height="28"
   version="1.1"
   style="enable-background:new"
   sodipodi:docname="minimize.svg"
   inkscape:version="1.2.1 (9c6d41e410, 2022-07-14, custom)"
   xmlns:inkscape="http://www.inkscape.org/namespaces/inkscape"
   xmlns:sodipodi="http://sodipodi.sourceforge.net/DTD/sodipodi-0.dtd"
   xmlns:xlink="http://www.w3.org/1999/xlink"
   xmlns="http://www.w3.org/2000/svg"
   xmlns:svg="http://www.w3.org/2000/svg"
   xmlns:rdf="http://www.w3.org/1999/02/22-rdf-syntax-ns#"
   xmlns:cc="http://creativecommons.org/ns#"
   xmlns:dc="http://purl.org/dc/elements/1.1/">
  <metadata
     id="metadata26">
    <rdf:RDF>
      <cc:Work
         rdf:about="">
        <dc:format>image/svg+xml</dc:format>
        <dc:type
           rdf:resource="http://purl.org/dc/dcmitype/StillImage" />
      </cc:Work>
    </rdf:RDF>
  </metadata>
  <defs
     id="defs24">
    <filter
       color-interpolation-filters="sRGB"
       height="1.048"
       width="1.048"
       y="-0.024"
       x="-0.024"
       id="filter11290">
      <feGaussianBlur
         id="feGaussianBlur879"
         stdDeviation="0.15875313" />
    </filter>
    <linearGradient
       gradientUnits="userSpaceOnUse"
       gradientTransform="translate(-0.0078552,-5.0139e-5)"
       y2="0.89802998"
       y1="16.296"
       x2="16.136999"
       x1="0.73910999"
       id="linearGradient1005">
      <stop
         id="stop882"
         offset="0"
         stop-color="#ff963c" />
      <stop
         id="stop884"
         offset="1"
         stop-color="#ffdc55" />
    </linearGradient>
    <filter
       color-interpolation-filters="sRGB"
       height="1.1658"
       width="1.1702"
       y="-0.082921997"
       x="-0.085106999"
       id="filter1223">
      <feGaussianBlur
         id="feGaussianBlur887"
         stdDeviation="0.33551144" />
    </filter>
  </defs>
  <sodipodi:namedview
     pagecolor="#c8c8c8"
     bordercolor="#666666"
     borderopacity="1"
     objecttolerance="10"
     gridtolerance="10"
     guidetolerance="10"
     inkscape:pageopacity="0"
     inkscape:pageshadow="2"
     inkscape:window-width="1920"
     inkscape:window-height="989"
     id="namedview22"
     showgrid="true"
     inkscape:zoom="8"
     inkscape:cx="68.875"
     inkscape:cy="7.5625"
     inkscape:window-x="0"
     inkscape:window-y="0"
     inkscape:window-maximized="1"
     inkscape:current-layer="svg4306"
     inkscape:document-rotation="0"
     inkscape:snap-bbox="true"
     inkscape:bbox-nodes="true"
     inkscape:snap-bbox-edge-midpoints="true"
     inkscape:pagecheckerboard="0"
     inkscape:showpageshadow="0"
     inkscape:deskcolor="#c8c8c8">
    <inkscape:grid
       type="xygrid"
       id="grid949"
       originx="0"
       originy="0" />
  </sodipodi:namedview>
  <use
     x="0"
     y="0"
     xlink:href="#g1051"
     id="use1053"
     transform="translate(27.966102)"
     width="100%"
     height="100%" />
  <g
     id="active-center"
     style="enable-background:new">
    <rect
       y="6.0135119e-07"
       x="2.9407613e-07"
       height="28"
       width="44"
       id="rect715"
       style="opacity:0.003;fill:#000000;fill-opacity:1;stroke-width:1.32665" />
    <path
       id="rect489"
       style="fill:#ffffff;fill-opacity:1;fill-rule:evenodd;stroke:none;stroke-width:22;stroke-linecap:round;stroke-linejoin:round;paint-order:stroke fill markers"
       d="M 21.5,8 C 21.223,8 21,8.2230003 21,8.5 V 9 H 20.5 C 20.223,9 20,9.2230003 20,9.5 20,9.7769997 20.223,10 20.5,10 H 21 v 0.5 c 0,0.277 0.223,0.5 0.5,0.5 0.277,0 0.5,-0.223 0.5,-0.5 V 10 h 0.5 C 22.777,10 23,9.7769997 23,9.5 23,9.2230003 22.777,9 22.5,9 H 22 V 8.5 C 22,8.2230003 21.777,8 21.5,8 Z m 4,0 C 25.223,8 25,8.2230003 25,8.5 V 9 H 24.5 C 24.223,9 24,9.2230003 24,9.5 24,9.7769997 24.223,10 24.5,10 H 25 v 0.5 c 0,0.277 0.223,0.5 0.5,0.5 0.277,0 0.5,-0.223 0.5,-0.5 V 10 h 0.5 C 26.777,10 27,9.7769997 27,9.5 27,9.2230003 26.777,9 26.5,9 H 26 V 8.5 C 26,8.2230003 25.777,8 25.5,8 Z m -8,4 C 17.223,12 17,12.223 17,12.5 V 13 h -0.5 c -0.277,0 -0.5,0.223 -0.5,0.5 0,0.277 0.223,0.5 0.5,0.5 H 17 v 0.5 c 0,0.277 0.223,0.5 0.5,0.5 0.277,0 0.5,-0.223 0.5,-0.5 V 14 h 0.5 C 18.777,14 19,13.777 19,13.5 19,13.223 18.777,13 18.5,13 H 18 V 12.5 C 18,12.223 17.777,12 17.5,12 Z m 4,0 C 21.223,12 21,12.223 21,12.5 V 13 h -0.5 c -0.277,0 -0.5,0.223 -0.5,0.5 0,0.277 0.223,0.5 0.5,0.5 H 21 v 0.5 c 0,0.277 0.223,0.5 0.5,0.5 0.277,0 0.5,-0.223 0.5,-0.5 V 14 h 0.5 C 22.777,14 23,13.777 23,13.5 23,13.223 22.777,13 22.5,13 H 22 V 12.5 C 22,12.223 21.777,12 21.5,12 Z m 4,0 C 25.223,12 25,12.223 25,12.5 V 13 h -0.5 c -0.277,0 -0.5,0.223 -0.5,0.5 0,0.277 0.223,0.5 0.5,0.5 H 25 v 0.5 c 0,0.277 0.223,0.5 0.5,0.5 0.277,0 0.5,-0.223 0.5,-0.5 V 14 h 0.5 C 26.777,14 27,13.777 27,13.5 27,13.223 26.777,13 26.5,13 H 26 V 12.5 C 26,12.223 25.777,12 25.5,12 Z m -8,4 C 17.223,16 17,16.223 17,16.5 V 17 h -0.5 c -0.277,0 -0.5,0.223 -0.5,0.5 0,0.277 0.223,0.5 0.5,0.5 H 17 v 0.5 c 0,0.277 0.223,0.5 0.5,0.5 0.277,0 0.5,-0.223 0.5,-0.5 V 18 h 0.5 C 18.777,18 19,17.777 19,17.5 19,17.223 18.777,17 18.5,17 H 18 V 16.5 C 18,16.223 17.777,16 17.5,16 Z m 4,0 C 21.223,16 21,16.223 21,16.5 V 17 h -0.5 c -0.277,0 -0.5,0.223 -0.5,0.5 0,0.277 0.223,0.5 0.5,0.5 H 21 v 0.5 c 0,0.277 0.223,0.5 0.5,0.5 0.277,0 0.5,-0.223 0.5,-0.5 V 18 h 0.5 C 22.777,18 23,17.777 23,17.5 23,17.223 22.777,17 22.5,17 H 22 V 16.5 C 22,16.223 21.777,16 21.5,16 Z m 4,0 C 25.223,16 25,16.223 25,16.5 V 17 h -0.5 c -0.277,0 -0.5,0.223 -0.5,0.5 0,0.277 0.223,0.5 0.5,0.5 H 25 v 0.5 c 0,0.277 0.223,0.5 0.5,0.5 0.277,0 0.5,-0.223 0.5,-0.5 V 18 h 0.5 C 26.777,18 27,17.777 27,17.5 27,17.223 26.777,17 26.5,17 H 26 V 16.5 C 26,16.223 25.777,16 25.5,16 Z"
       sodipodi:nodetypes="sscssscssscssscsssscssscssscssscsssscssscssscssscsssscssscssscssscsssscssscssscssscsssscssscssscssscsssscssscssscssscsssscssscssscssscss" />
  </g>
  <g
     id="hover-center">
    <g
       id="use1628"
       transform="matrix(4.376295,0,0,3.3070868,-2.3157899,93.625003)">
      <rect
         style="color:#232629;opacity:0.1;fill:#ffffff;fill-opacity:1"
         id="rect17449"
         width="10.054167"
         height="8.4666662"
         x="0.52916682"
         y="-19.84375"
         class="ColorScheme-Text" />
    </g>
    <path
       id="path16732"
       style="fill:#ffffff;fill-opacity:1;fill-rule:evenodd;stroke:none;stroke-width:22;stroke-linecap:round;stroke-linejoin:round;paint-order:stroke fill markers"
       d="M 21.5,36 C 21.223,36 21,36.223 21,36.5 V 37 h -0.5 c -0.277,0 -0.5,0.223 -0.5,0.5 0,0.277 0.223,0.5 0.5,0.5 H 21 v 0.5 c 0,0.277 0.223,0.5 0.5,0.5 0.277,0 0.5,-0.223 0.5,-0.5 V 38 h 0.5 C 22.777,38 23,37.777 23,37.5 23,37.223 22.777,37 22.5,37 H 22 V 36.5 C 22,36.223 21.777,36 21.5,36 Z m 4,0 C 25.223,36 25,36.223 25,36.5 V 37 h -0.5 c -0.277,0 -0.5,0.223 -0.5,0.5 0,0.277 0.223,0.5 0.5,0.5 H 25 v 0.5 c 0,0.277 0.223,0.5 0.5,0.5 0.277,0 0.5,-0.223 0.5,-0.5 V 38 h 0.5 C 26.777,38 27,37.777 27,37.5 27,37.223 26.777,37 26.5,37 H 26 V 36.5 C 26,36.223 25.777,36 25.5,36 Z m -8,4 C 17.223,40 17,40.223 17,40.5 V 41 h -0.5 c -0.277,0 -0.5,0.223 -0.5,0.5 0,0.277 0.223,0.5 0.5,0.5 H 17 v 0.5 c 0,0.277 0.223,0.5 0.5,0.5 0.277,0 0.5,-0.223 0.5,-0.5 V 42 h 0.5 C 18.777,42 19,41.777 19,41.5 19,41.223 18.777,41 18.5,41 H 18 V 40.5 C 18,40.223 17.777,40 17.5,40 Z m 4,0 C 21.223,40 21,40.223 21,40.5 V 41 h -0.5 c -0.277,0 -0.5,0.223 -0.5,0.5 0,0.277 0.223,0.5 0.5,0.5 H 21 v 0.5 c 0,0.277 0.223,0.5 0.5,0.5 0.277,0 0.5,-0.223 0.5,-0.5 V 42 h 0.5 C 22.777,42 23,41.777 23,41.5 23,41.223 22.777,41 22.5,41 H 22 V 40.5 C 22,40.223 21.777,40 21.5,40 Z m 4,0 C 25.223,40 25,40.223 25,40.5 V 41 h -0.5 c -0.277,0 -0.5,0.223 -0.5,0.5 0,0.277 0.223,0.5 0.5,0.5 H 25 v 0.5 c 0,0.277 0.223,0.5 0.5,0.5 0.277,0 0.5,-0.223 0.5,-0.5 V 42 h 0.5 C 26.777,42 27,41.777 27,41.5 27,41.223 26.777,41 26.5,41 H 26 V 40.5 C 26,40.223 25.777,40 25.5,40 Z m -8,4 C 17.223,44 17,44.223 17,44.5 V 45 h -0.5 c -0.277,0 -0.5,0.223 -0.5,0.5 0,0.277 0.223,0.5 0.5,0.5 H 17 v 0.5 c 0,0.277 0.223,0.5 0.5,0.5 0.277,0 0.5,-0.223 0.5,-0.5 V 46 h 0.5 C 18.777,46 19,45.777 19,45.5 19,45.223 18.777,45 18.5,45 H 18 V 44.5 C 18,44.223 17.777,44 17.5,44 Z m 4,0 C 21.223,44 21,44.223 21,44.5 V 45 h -0.5 c -0.277,0 -0.5,0.223 -0.5,0.5 0,0.277 0.223,0.5 0.5,0.5 H 21 v 0.5 c 0,0.277 0.223,0.5 0.5,0.5 0.277,0 0.5,-0.223 0.5,-0.5 V 46 h 0.5 C 22.777,46 23,45.777 23,45.5 23,45.223 22.777,45 22.5,45 H 22 V 44.5 C 22,44.223 21.777,44 21.5,44 Z m 4,0 C 25.223,44 25,44.223 25,44.5 V 45 h -0.5 c -0.277,0 -0.5,0.223 -0.5,0.5 0,0.277 0.223,0.5 0.5,0.5 H 25 v 0.5 c 0,0.277 0.223,0.5 0.5,0.5 0.277,0 0.5,-0.223 0.5,-0.5 V 46 h 0.5 C 26.777,46 27,45.777 27,45.5 27,45.223 26.777,45 26.5,45 H 26 V 44.5 C 26,44.223 25.777,44 25.5,44 Z"
       sodipodi:nodetypes="sscssscssscssscsssscssscssscssscsssscssscssscssscsssscssscssscssscsssscssscssscssscsssscssscssscssscsssscssscssscssscsssscssscssscssscss" />
  </g>
  <g
     id="pressed-center"
     transform="translate(0,28.000001)">
    <g
       id="g17845"
       transform="matrix(4.376295,0,0,3.3070868,-2.3157899,93.625003)">
      <rect
         style="color:#232629;opacity:0.25;fill:#ffffff;fill-opacity:1"
         id="rect17843"
         width="10.054167"
         height="8.4666662"
         x="0.52916682"
         y="-19.84375"
         class="ColorScheme-Text" />
    </g>
    <path
       id="path17847"
       style="fill:#ffffff;fill-opacity:1;fill-rule:evenodd;stroke:none;stroke-width:22;stroke-linecap:round;stroke-linejoin:round;paint-order:stroke fill markers"
       d="M 21.5,36 C 21.223,36 21,36.223 21,36.5 V 37 h -0.5 c -0.277,0 -0.5,0.223 -0.5,0.5 0,0.277 0.223,0.5 0.5,0.5 H 21 v 0.5 c 0,0.277 0.223,0.5 0.5,0.5 0.277,0 0.5,-0.223 0.5,-0.5 V 38 h 0.5 C 22.777,38 23,37.777 23,37.5 23,37.223 22.777,37 22.5,37 H 22 V 36.5 C 22,36.223 21.777,36 21.5,36 Z m 4,0 C 25.223,36 25,36.223 25,36.5 V 37 h -0.5 c -0.277,0 -0.5,0.223 -0.5,0.5 0,0.277 0.223,0.5 0.5,0.5 H 25 v 0.5 c 0,0.277 0.223,0.5 0.5,0.5 0.277,0 0.5,-0.223 0.5,-0.5 V 38 h 0.5 C 26.777,38 27,37.777 27,37.5 27,37.223 26.777,37 26.5,37 H 26 V 36.5 C 26,36.223 25.777,36 25.5,36 Z m -8,4 C 17.223,40 17,40.223 17,40.5 V 41 h -0.5 c -0.277,0 -0.5,0.223 -0.5,0.5 0,0.277 0.223,0.5 0.5,0.5 H 17 v 0.5 c 0,0.277 0.223,0.5 0.5,0.5 0.277,0 0.5,-0.223 0.5,-0.5 V 42 h 0.5 C 18.777,42 19,41.777 19,41.5 19,41.223 18.777,41 18.5,41 H 18 V 40.5 C 18,40.223 17.777,40 17.5,40 Z m 4,0 C 21.223,40 21,40.223 21,40.5 V 41 h -0.5 c -0.277,0 -0.5,0.223 -0.5,0.5 0,0.277 0.223,0.5 0.5,0.5 H 21 v 0.5 c 0,0.277 0.223,0.5 0.5,0.5 0.277,0 0.5,-0.223 0.5,-0.5 V 42 h 0.5 C 22.777,42 23,41.777 23,41.5 23,41.223 22.777,41 22.5,41 H 22 V 40.5 C 22,40.223 21.777,40 21.5,40 Z m 4,0 C 25.223,40 25,40.223 25,40.5 V 41 h -0.5 c -0.277,0 -0.5,0.223 -0.5,0.5 0,0.277 0.223,0.5 0.5,0.5 H 25 v 0.5 c 0,0.277 0.223,0.5 0.5,0.5 0.277,0 0.5,-0.223 0.5,-0.5 V 42 h 0.5 C 26.777,42 27,41.777 27,41.5 27,41.223 26.777,41 26.5,41 H 26 V 40.5 C 26,40.223 25.777,40 25.5,40 Z m -8,4 C 17.223,44 17,44.223 17,44.5 V 45 h -0.5 c -0.277,0 -0.5,0.223 -0.5,0.5 0,0.277 0.223,0.5 0.5,0.5 H 17 v 0.5 c 0,0.277 0.223,0.5 0.5,0.5 0.277,0 0.5,-0.223 0.5,-0.5 V 46 h 0.5 C 18.777,46 19,45.777 19,45.5 19,45.223 18.777,45 18.5,45 H 18 V 44.5 C 18,44.223 17.777,44 17.5,44 Z m 4,0 C 21.223,44 21,44.223 21,44.5 V 45 h -0.5 c -0.277,0 -0.5,0.223 -0.5,0.5 0,0.277 0.223,0.5 0.5,0.5 H 21 v 0.5 c 0,0.277 0.223,0.5 0.5,0.5 0.277,0 0.5,-0.223 0.5,-0.5 V 46 h 0.5 C 22.777,46 23,45.777 23,45.5 23,45.223 22.777,45 22.5,45 H 22 V 44.5 C 22,44.223 21.777,44 21.5,44 Z m 4,0 C 25.223,44 25,44.223 25,44.5 V 45 h -0.5 c -0.277,0 -0.5,0.223 -0.5,0.5 0,0.277 0.223,0.5 0.5,0.5 H 25 v 0.5 c 0,0.277 0.223,0.5 0.5,0.5 0.277,0 0.5,-0.223 0.5,-0.5 V 46 h 0.5 C 26.777,46 27,45.777 27,45.5 27,45.223 26.777,45 26.5,45 H 26 V 44.5 C 26,44.223 25.777,44 25.5,44 Z"
       sodipodi:nodetypes="sscssscssscssscsssscssscssscssscsssscssscssscssscsssscssscssscssscsssscssscssscssscsssscssscssscssscsssscssscssscssscsssscssscssscssscss" />
  </g>
  <g
     id="inactive-center"
     style="enable-background:new"
     transform="translate(44)">
    <rect
       y="6.0135119e-07"
       x="2.9407613e-07"
       height="28"
       width="44"
       id="rect18613"
       style="opacity:0.003;fill:#000000;fill-opacity:1;stroke-width:1.32665" />
    <path
       id="path18615"
       style="fill:#ffffff;fill-opacity:1;fill-rule:evenodd;stroke:none;stroke-width:22;stroke-linecap:round;stroke-linejoin:round;paint-order:stroke fill markers;opacity:0.4"
       d="M 21.5,8 C 21.223,8 21,8.2230003 21,8.5 V 9 H 20.5 C 20.223,9 20,9.2230003 20,9.5 20,9.7769997 20.223,10 20.5,10 H 21 v 0.5 c 0,0.277 0.223,0.5 0.5,0.5 0.277,0 0.5,-0.223 0.5,-0.5 V 10 h 0.5 C 22.777,10 23,9.7769997 23,9.5 23,9.2230003 22.777,9 22.5,9 H 22 V 8.5 C 22,8.2230003 21.777,8 21.5,8 Z m 4,0 C 25.223,8 25,8.2230003 25,8.5 V 9 H 24.5 C 24.223,9 24,9.2230003 24,9.5 24,9.7769997 24.223,10 24.5,10 H 25 v 0.5 c 0,0.277 0.223,0.5 0.5,0.5 0.277,0 0.5,-0.223 0.5,-0.5 V 10 h 0.5 C 26.777,10 27,9.7769997 27,9.5 27,9.2230003 26.777,9 26.5,9 H 26 V 8.5 C 26,8.2230003 25.777,8 25.5,8 Z m -8,4 C 17.223,12 17,12.223 17,12.5 V 13 h -0.5 c -0.277,0 -0.5,0.223 -0.5,0.5 0,0.277 0.223,0.5 0.5,0.5 H 17 v 0.5 c 0,0.277 0.223,0.5 0.5,0.5 0.277,0 0.5,-0.223 0.5,-0.5 V 14 h 0.5 C 18.777,14 19,13.777 19,13.5 19,13.223 18.777,13 18.5,13 H 18 V 12.5 C 18,12.223 17.777,12 17.5,12 Z m 4,0 C 21.223,12 21,12.223 21,12.5 V 13 h -0.5 c -0.277,0 -0.5,0.223 -0.5,0.5 0,0.277 0.223,0.5 0.5,0.5 H 21 v 0.5 c 0,0.277 0.223,0.5 0.5,0.5 0.277,0 0.5,-0.223 0.5,-0.5 V 14 h 0.5 C 22.777,14 23,13.777 23,13.5 23,13.223 22.777,13 22.5,13 H 22 V 12.5 C 22,12.223 21.777,12 21.5,12 Z m 4,0 C 25.223,12 25,12.223 25,12.5 V 13 h -0.5 c -0.277,0 -0.5,0.223 -0.5,0.5 0,0.277 0.223,0.5 0.5,0.5 H 25 v 0.5 c 0,0.277 0.223,0.5 0.5,0.5 0.277,0 0.5,-0.223 0.5,-0.5 V 14 h 0.5 C 26.777,14 27,13.777 27,13.5 27,13.223 26.777,13 26.5,13 H 26 V 12.5 C 26,12.223 25.777,12 25.5,12 Z m -8,4 C 17.223,16 17,16.223 17,16.5 V 17 h -0.5 c -0.277,0 -0.5,0.223 -0.5,0.5 0,0.277 0.223,0.5 0.5,0.5 H 17 v 0.5 c 0,0.277 0.223,0.5 0.5,0.5 0.277,0 0.5,-0.223 0.5,-0.5 V 18 h 0.5 C 18.777,18 19,17.777 19,17.5 19,17.223 18.777,17 18.5,17 H 18 V 16.5 C 18,16.223 17.777,16 17.5,16 Z m 4,0 C 21.223,16 21,16.223 21,16.5 V 17 h -0.5 c -0.277,0 -0.5,0.223 -0.5,0.5 0,0.277 0.223,0.5 0.5,0.5 H 21 v 0.5 c 0,0.277 0.223,0.5 0.5,0.5 0.277,0 0.5,-0.223 0.5,-0.5 V 18 h 0.5 C 22.777,18 23,17.777 23,17.5 23,17.223 22.777,17 22.5,17 H 22 V 16.5 C 22,16.223 21.777,16 21.5,16 Z m 4,0 C 25.223,16 25,16.223 25,16.5 V 17 h -0.5 c -0.277,0 -0.5,0.223 -0.5,0.5 0,0.277 0.223,0.5 0.5,0.5 H 25 v 0.5 c 0,0.277 0.223,0.5 0.5,0.5 0.277,0 0.5,-0.223 0.5,-0.5 V 18 h 0.5 C 26.777,18 27,17.777 27,17.5 27,17.223 26.777,17 26.5,17 H 26 V 16.5 C 26,16.223 25.777,16 25.5,16 Z"
       sodipodi:nodetypes="sscssscssscssscsssscssscssscssscsssscssscssscssscsssscssscssscssscsssscssscssscssscsssscssscssscssscsssscssscssscssscsssscssscssscssscss" />
  </g>
  <g
     id="deactivated-center"
     style="enable-background:new"
     transform="translate(88)">
    <rect
       y="6.0135119e-07"
       x="2.9407613e-07"
       height="28"
       width="44"
       id="rect20071"
       style="opacity:0.003;fill:#000000;fill-opacity:1;stroke-width:1.32665" />
    <path
       id="path20073"
       style="opacity:0.4;fill:#ffffff;fill-opacity:1;fill-rule:evenodd;stroke:none;stroke-width:22;stroke-linecap:round;stroke-linejoin:round;paint-order:stroke fill markers"
       d="M 21.5,8 C 21.223,8 21,8.2230003 21,8.5 V 9 H 20.5 C 20.223,9 20,9.2230003 20,9.5 20,9.7769997 20.223,10 20.5,10 H 21 v 0.5 c 0,0.277 0.223,0.5 0.5,0.5 0.277,0 0.5,-0.223 0.5,-0.5 V 10 h 0.5 C 22.777,10 23,9.7769997 23,9.5 23,9.2230003 22.777,9 22.5,9 H 22 V 8.5 C 22,8.2230003 21.777,8 21.5,8 Z m 4,0 C 25.223,8 25,8.2230003 25,8.5 V 9 H 24.5 C 24.223,9 24,9.2230003 24,9.5 24,9.7769997 24.223,10 24.5,10 H 25 v 0.5 c 0,0.277 0.223,0.5 0.5,0.5 0.277,0 0.5,-0.223 0.5,-0.5 V 10 h 0.5 C 26.777,10 27,9.7769997 27,9.5 27,9.2230003 26.777,9 26.5,9 H 26 V 8.5 C 26,8.2230003 25.777,8 25.5,8 Z m -8,4 C 17.223,12 17,12.223 17,12.5 V 13 h -0.5 c -0.277,0 -0.5,0.223 -0.5,0.5 0,0.277 0.223,0.5 0.5,0.5 H 17 v 0.5 c 0,0.277 0.223,0.5 0.5,0.5 0.277,0 0.5,-0.223 0.5,-0.5 V 14 h 0.5 C 18.777,14 19,13.777 19,13.5 19,13.223 18.777,13 18.5,13 H 18 V 12.5 C 18,12.223 17.777,12 17.5,12 Z m 4,0 C 21.223,12 21,12.223 21,12.5 V 13 h -0.5 c -0.277,0 -0.5,0.223 -0.5,0.5 0,0.277 0.223,0.5 0.5,0.5 H 21 v 0.5 c 0,0.277 0.223,0.5 0.5,0.5 0.277,0 0.5,-0.223 0.5,-0.5 V 14 h 0.5 C 22.777,14 23,13.777 23,13.5 23,13.223 22.777,13 22.5,13 H 22 V 12.5 C 22,12.223 21.777,12 21.5,12 Z m 4,0 C 25.223,12 25,12.223 25,12.5 V 13 h -0.5 c -0.277,0 -0.5,0.223 -0.5,0.5 0,0.277 0.223,0.5 0.5,0.5 H 25 v 0.5 c 0,0.277 0.223,0.5 0.5,0.5 0.277,0 0.5,-0.223 0.5,-0.5 V 14 h 0.5 C 26.777,14 27,13.777 27,13.5 27,13.223 26.777,13 26.5,13 H 26 V 12.5 C 26,12.223 25.777,12 25.5,12 Z m -8,4 C 17.223,16 17,16.223 17,16.5 V 17 h -0.5 c -0.277,0 -0.5,0.223 -0.5,0.5 0,0.277 0.223,0.5 0.5,0.5 H 17 v 0.5 c 0,0.277 0.223,0.5 0.5,0.5 0.277,0 0.5,-0.223 0.5,-0.5 V 18 h 0.5 C 18.777,18 19,17.777 19,17.5 19,17.223 18.777,17 18.5,17 H 18 V 16.5 C 18,16.223 17.777,16 17.5,16 Z m 4,0 C 21.223,16 21,16.223 21,16.5 V 17 h -0.5 c -0.277,0 -0.5,0.223 -0.5,0.5 0,0.277 0.223,0.5 0.5,0.5 H 21 v 0.5 c 0,0.277 0.223,0.5 0.5,0.5 0.277,0 0.5,-0.223 0.5,-0.5 V 18 h 0.5 C 22.777,18 23,17.777 23,17.5 23,17.223 22.777,17 22.5,17 H 22 V 16.5 C 22,16.223 21.777,16 21.5,16 Z m 4,0 C 25.223,16 25,16.223 25,16.5 V 17 h -0.5 c -0.277,0 -0.5,0.223 -0.5,0.5 0,0.277 0.223,0.5 0.5,0.5 H 25 v 0.5 c 0,0.277 0.223,0.5 0.5,0.5 0.277,0 0.5,-0.223 0.5,-0.5 V 18 h 0.5 C 26.777,18 27,17.777 27,17.5 27,17.223 26.777,17 26.5,17 H 26 V 16.5 C 26,16.223 25.777,16 25.5,16 Z"
       sodipodi:nodetypes="sscssscssscssscsssscssscssscssscsssscssscssscssscsssscssscssscssscsssscssscssscssscsssscssscssscssscsssscssscssscssscsssscssscssscssscss" />
  </g>
</svg>
